<svg width="42" height="42" viewBox="0 0 42 42" fill="none" xmlns="http://www.w3.org/2000/svg">
<path d="M21 31.8C21.7333 31.8 22.3083 31.6001 22.725 31.2001C23.1417 30.8001 23.35 30.2334 23.35 29.5C23.35 28.7667 23.1417 28.1834 22.725 27.75C22.3083 27.3167 21.7333 27.1 21 27.1C20.2667 27.1 19.6917 27.3167 19.275 27.75C18.8583 28.1834 18.65 28.7667 18.65 29.5C18.65 30.2334 18.8583 30.8001 19.275 31.2001C19.6917 31.6001 20.2667 31.8 21 31.8V31.8ZM19.05 23.35H23.25V10.2H19.05V23.35ZM21 41.9501C18.1 41.9501 15.375 41.4 12.825 40.3C10.275 39.2 8.05832 37.7084 6.17499 35.8251C4.29165 33.9417 2.79999 31.7167 1.69999 29.1501C0.599988 26.5834 0.0499878 23.8667 0.0499878 21C0.0499878 18.1 0.599988 15.375 1.69999 12.825C2.79999 10.275 4.29999 8.05005 6.19999 6.15005C8.09999 4.25005 10.3167 2.75838 12.85 1.67505C15.3833 0.591716 18.1 0.0500488 21 0.0500488C23.9 0.0500488 26.625 0.591716 29.175 1.67505C31.725 2.75838 33.95 4.25005 35.85 6.15005C37.75 8.05005 39.2417 10.275 40.325 12.825C41.4083 15.375 41.95 18.1 41.95 21C41.95 23.9 41.4083 26.6167 40.325 29.1501C39.2417 31.6834 37.75 33.9 35.85 35.8C33.95 37.7 31.725 39.2 29.175 40.3C26.625 41.4 23.9 41.9501 21 41.9501ZM21 37.8C25.6333 37.8 29.5917 36.1584 32.875 32.875C36.1583 29.5917 37.8 25.6334 37.8 21C37.8 16.3667 36.1667 12.4084 32.9 9.12505C29.6333 5.84172 25.6667 4.20005 21 4.20005C16.3667 4.20005 12.4083 5.83338 9.12499 9.10005C5.84165 12.3667 4.19999 16.3334 4.19999 21C4.19999 25.6334 5.84165 29.5917 9.12499 32.875C12.4083 36.1584 16.3667 37.8 21 37.8V37.8Z" fill="#EA5555"/>
</svg>
