<svg width="204" height="30" viewBox="0 0 204 30" fill="none" xmlns="http://www.w3.org/2000/svg">
<path d="M8.10833 2H13.9814V3.99092H8.10833V2Z" fill="url(#paint0_linear_6_7409)"/>
<path d="M18.4035 5.15204L19.7509 6.44605L17.8854 8.23765C15.6879 6.53469 12.892 5.70958 10.0783 5.9336C7.26431 6.15787 4.64813 7.41414 2.77269 9.44161C0.897364 11.4691 -0.093105 14.1122 0.00689814 16.8224C0.106907 19.5326 1.28967 22.1017 3.30984 23.9969C5.32977 25.8918 8.03195 26.9671 10.8554 26.9993C13.6788 27.0314 16.407 26.0184 18.4732 24.1701C20.5394 22.322 21.7855 19.7805 21.9527 17.0731C22.1197 14.3659 21.1951 11.7008 19.3706 9.63074L21.2016 7.8722L22.549 9.16622L24 7.77266L19.8543 3.79112L18.4035 5.15204ZM13.256 18.5567C12.5155 19.3568 11.3867 19.717 10.2948 19.5011C9.20293 19.2851 8.31419 18.5262 7.96279 17.5101C7.61168 16.4941 7.85146 15.3753 8.59199 14.5752L6.4501 11.1577L8.24639 10.1291L10.3538 13.5136C11.244 13.3053 12.1841 13.4849 12.9237 14.0038C13.6632 14.5229 14.1269 15.3285 14.191 16.2062C14.2551 17.0838 13.9129 17.9439 13.256 18.5568L13.256 18.5567Z" fill="url(#paint1_linear_6_7409)"/>
<path d="M11.0449 15.4378C10.7244 15.4438 10.4248 15.5917 10.2335 15.8385C10.0419 16.0852 9.98022 16.4032 10.066 16.6996C10.1518 16.9961 10.3754 17.238 10.6721 17.3544C10.9687 17.4711 11.3047 17.4491 11.5823 17.2954C11.8599 17.1417 12.0479 16.8732 12.0913 16.5684C12.1349 16.2634 12.0291 15.9565 11.8047 15.7366C11.6052 15.5408 11.3302 15.4327 11.0449 15.4378L11.0449 15.4378Z" fill="url(#paint2_linear_6_7409)"/>
<path d="M105.043 26.3487C103.305 26.9494 101.648 27.0864 100.07 26.7596C98.4919 26.4327 97.1059 25.7296 95.9119 24.6501C94.7179 23.5706 93.8353 22.2227 93.264 20.6064C92.6711 18.9288 92.5088 17.3203 92.7772 15.7811C93.059 14.2142 93.6971 12.8342 94.6913 11.6409C95.7062 10.4405 96.9996 9.56846 98.5717 9.02488C99.8955 8.56713 101.13 8.38142 102.275 8.46774C103.44 8.54692 104.508 8.84341 105.479 9.35721C106.45 9.87101 107.295 10.5546 108.014 11.4078C108.726 12.2407 109.281 13.2197 109.679 14.345C109.78 14.6314 109.865 14.9352 109.932 15.2564C110.019 15.5704 110.062 15.8543 110.059 16.1079L97.0271 20.6139L95.9425 17.5451L106.678 13.833L105.264 15.9405C105.117 14.935 104.769 14.1141 104.219 13.4777C103.69 12.8342 103.029 12.4084 102.236 12.2005C101.464 11.9854 100.633 12.0317 99.7431 12.3392C98.8951 12.6325 98.216 13.1084 97.706 13.7669C97.1887 14.4049 96.8988 15.1939 96.8364 16.1339C96.7875 17.0462 97.0069 18.0609 97.4946 19.178C97.7734 20.2296 98.2296 21.0935 98.8633 21.7698C99.5104 22.4185 100.262 22.8361 101.117 23.0226C101.992 23.2019 102.896 23.1306 103.827 22.8088C104.757 22.4869 105.475 22.0207 105.979 21.4103C106.503 20.7927 106.836 20.0922 106.977 19.3088L110.83 19.7673C110.781 20.6797 110.513 21.5643 110.027 22.4213C109.54 23.2782 108.873 24.0487 108.023 24.7326C107.195 25.4095 106.201 25.9481 105.043 26.3487Z" fill="black"/>
<path d="M49.4332 26.8049C47.4173 26.8049 45.8506 26.2631 44.7331 25.1795C43.6374 24.0741 43.0896 22.5245 43.0896 20.5306V12.7282H40V8.92458H40.3287C41.2052 8.92458 41.8845 8.69701 42.3665 8.24187C42.8486 7.78674 43.0896 7.1257 43.0896 6.25878V4.89337H47.3954V8.92458H51.5039V12.7282H47.3954V20.303C47.3954 20.8882 47.494 21.3866 47.6912 21.7984C47.9103 22.2102 48.239 22.5245 48.6773 22.7412C49.1374 22.958 49.7181 23.0663 50.4193 23.0663C50.5727 23.0663 50.748 23.0555 50.9452 23.0338C51.1643 23.0121 51.3725 22.9905 51.5697 22.9688V26.6099C51.2629 26.6532 50.9123 26.6966 50.5179 26.7399C50.1235 26.7833 49.7619 26.8049 49.4332 26.8049Z" fill="black"/>
<path d="M54.8594 26.6099V8.92458H59.1651V26.6099H54.8594ZM54.8594 6.94148V2.39012H59.1651V6.94148H54.8594Z" fill="black"/>
<path d="M63.1407 26.6099V8.92458H67.1835V13.0208L66.7233 12.3381C67.052 11.0594 67.7094 10.1058 68.6954 9.47724C69.6815 8.84872 70.8428 8.53446 72.1795 8.53446C73.6476 8.53446 74.9404 8.91374 76.0579 9.6723C77.1755 10.4309 77.8986 11.4278 78.2273 12.6632L77.0111 12.7607C77.5589 11.352 78.3806 10.3008 79.4763 9.60728C80.5719 8.89207 81.8318 8.53446 83.2561 8.53446C84.527 8.53446 85.6555 8.81621 86.6416 9.37971C87.6495 9.94322 88.4384 10.7343 89.0081 11.7529C89.5778 12.7499 89.8627 13.9094 89.8627 15.2315V26.6099H85.5569V16.2393C85.5569 15.459 85.4145 14.7872 85.1296 14.2237C84.8448 13.6602 84.4504 13.2267 83.9464 12.9233C83.4424 12.5982 82.8288 12.4356 82.1057 12.4356C81.4265 12.4356 80.8239 12.5982 80.298 12.9233C79.7721 13.2267 79.3667 13.6602 79.0818 14.2237C78.797 14.7872 78.6546 15.459 78.6546 16.2393V26.6099H74.3488V16.2393C74.3488 15.459 74.2064 14.7872 73.9215 14.2237C73.6366 13.6602 73.2313 13.2267 72.7054 12.9233C72.2014 12.5982 71.5988 12.4356 70.8976 12.4356C70.2183 12.4356 69.6157 12.5982 69.0898 12.9233C68.5639 13.2267 68.1586 13.6602 67.8737 14.2237C67.5888 14.7872 67.4464 15.459 67.4464 16.2393V26.6099H63.1407Z" fill="black"/>
<path d="M123.393 27C122.1 27 120.906 26.7508 119.81 26.2523C118.736 25.7321 117.882 24.9952 117.246 24.0416L117.674 23.1964V26.6099H113.631V2H117.937V12.4356L117.279 11.5579C117.893 10.6042 118.726 9.86736 119.777 9.3472C120.829 8.80537 122.045 8.53446 123.426 8.53446C125.113 8.53446 126.636 8.94625 127.994 9.76983C129.353 10.5934 130.427 11.6987 131.216 13.0858C132.026 14.4729 132.432 16.0334 132.432 17.7672C132.432 19.4794 132.037 21.0399 131.248 22.4486C130.46 23.8574 129.386 24.9736 128.027 25.7971C126.669 26.599 125.124 27 123.393 27ZM122.9 23.0988C123.886 23.0988 124.762 22.8713 125.529 22.4161C126.296 21.961 126.888 21.3325 127.304 20.5306C127.742 19.7287 127.962 18.8075 127.962 17.7672C127.962 16.7269 127.742 15.8166 127.304 15.0364C126.888 14.2345 126.296 13.606 125.529 13.1508C124.762 12.674 123.886 12.4356 122.9 12.4356C121.958 12.4356 121.103 12.6632 120.336 13.1183C119.591 13.5735 118.999 14.2128 118.561 15.0364C118.145 15.8383 117.937 16.7486 117.937 17.7672C117.937 18.8075 118.145 19.7287 118.561 20.5306C118.999 21.3325 119.591 21.961 120.336 22.4161C121.103 22.8713 121.958 23.0988 122.9 23.0988Z" fill="black"/>
<path d="M135.714 26.6099V2H140.02V26.6099H135.714Z" fill="black"/>
<path d="M152.739 27C150.986 27 149.386 26.599 147.94 25.7971C146.516 24.9952 145.376 23.9007 144.522 22.5137C143.689 21.1266 143.273 19.5444 143.273 17.7672C143.273 15.99 143.689 14.4079 144.522 13.0208C145.376 11.6337 146.516 10.5392 147.94 9.73732C149.364 8.93541 150.964 8.53446 152.739 8.53446C154.492 8.53446 156.08 8.93541 157.505 9.73732C158.929 10.5392 160.057 11.6337 160.89 13.0208C161.745 14.3862 162.172 15.9684 162.172 17.7672C162.172 19.5444 161.745 21.1266 160.89 22.5137C160.035 23.9007 158.896 24.9952 157.472 25.7971C156.047 26.599 154.47 27 152.739 27ZM152.739 23.0988C153.703 23.0988 154.546 22.8713 155.27 22.4161C156.015 21.961 156.595 21.3325 157.012 20.5306C157.45 19.707 157.669 18.7859 157.669 17.7672C157.669 16.7269 157.45 15.8166 157.012 15.0364C156.595 14.2345 156.015 13.606 155.27 13.1508C154.546 12.674 153.703 12.4356 152.739 12.4356C151.753 12.4356 150.887 12.674 150.142 13.1508C149.397 13.606 148.805 14.2345 148.367 15.0364C147.951 15.8166 147.743 16.7269 147.743 17.7672C147.743 18.7859 147.951 19.707 148.367 20.5306C148.805 21.3325 149.397 21.961 150.142 22.4161C150.887 22.8713 151.753 23.0988 152.739 23.0988Z" fill="black"/>
<path d="M174.049 27C172.274 27 170.674 26.599 169.25 25.7971C167.848 24.9736 166.741 23.8682 165.93 22.4811C165.119 21.0724 164.714 19.4902 164.714 17.7347C164.714 15.9792 165.119 14.4079 165.93 13.0208C166.741 11.6337 167.848 10.5392 169.25 9.73732C170.674 8.93541 172.274 8.53446 174.049 8.53446C175.32 8.53446 176.503 8.76203 177.599 9.21716C178.694 9.65063 179.636 10.2575 180.425 11.0377C181.236 11.7963 181.817 12.7065 182.167 13.7685L178.387 15.394C178.059 14.5054 177.5 13.7902 176.711 13.2484C175.944 12.7065 175.057 12.4356 174.049 12.4356C173.107 12.4356 172.263 12.6632 171.518 13.1183C170.795 13.5735 170.225 14.202 169.809 15.0039C169.392 15.8058 169.184 16.7269 169.184 17.7672C169.184 18.8075 169.392 19.7287 169.809 20.5306C170.225 21.3325 170.795 21.961 171.518 22.4161C172.263 22.8713 173.107 23.0988 174.049 23.0988C175.079 23.0988 175.977 22.8279 176.744 22.2861C177.511 21.7443 178.059 21.0182 178.387 20.1079L182.167 21.7984C181.817 22.7954 181.247 23.6948 180.458 24.4967C179.669 25.277 178.727 25.8947 177.631 26.3498C176.536 26.7833 175.342 27 174.049 27Z" fill="black"/>
<path d="M185.434 26.6099V2H189.74V18.1248L188.097 17.6372L196.511 8.92458H201.869L195.262 16.0442L202 26.6099H197.07L191.219 17.4421L193.783 16.922L188.392 22.6437L189.74 20.0429V26.6099H185.434Z" fill="black"/>
<defs>
<linearGradient id="paint0_linear_6_7409" x1="-0.0140753" y1="14.5052" x2="23.9996" y2="14.5052" gradientUnits="userSpaceOnUse">
<stop stop-color="#635FC7"/>
<stop offset="0.497917" stop-color="#8A87D5"/>
<stop offset="1" stop-color="#B1AFE3"/>
</linearGradient>
<linearGradient id="paint1_linear_6_7409" x1="-0.0140753" y1="14.5052" x2="23.9996" y2="14.5052" gradientUnits="userSpaceOnUse">
<stop stop-color="#635FC7"/>
<stop offset="0.497917" stop-color="#8A87D5"/>
<stop offset="1" stop-color="#B1AFE3"/>
</linearGradient>
<linearGradient id="paint2_linear_6_7409" x1="-0.0140753" y1="14.5052" x2="23.9996" y2="14.5052" gradientUnits="userSpaceOnUse">
<stop stop-color="#635FC7"/>
<stop offset="0.497917" stop-color="#8A87D5"/>
<stop offset="1" stop-color="#B1AFE3"/>
</linearGradient>
</defs>
</svg>
