<svg width="18" height="16" viewBox="0 0 18 16" fill="none" xmlns="http://www.w3.org/2000/svg">
<path fill-rule="evenodd" clip-rule="evenodd" d="M7.0893 10.0682L7.19649 10.0683L7.43407 10.0689C9.45181 10.0785 14.1786 10.2433 14.1786 13.0436C14.1786 15.64 10.2965 15.9869 7.27686 16L6.74453 15.9998C4.72679 15.9901 0 15.8254 0 13.0258C0 10.3746 4.0455 10.0682 7.0893 10.0682ZM7.0893 11.2807C3.2814 11.2807 1.35 11.8683 1.35 13.0258C1.35 14.1946 3.2814 14.7879 7.0893 14.7879C10.8972 14.7879 12.8286 14.2003 12.8286 13.0436C12.8286 11.8732 10.8972 11.2807 7.0893 11.2807ZM15.4837 4.78412C15.8563 4.78412 16.1587 5.05571 16.1587 5.39034L16.1586 6.4042L17.325 6.40485C17.6976 6.40485 18 6.67644 18 7.01108C18 7.34572 17.6976 7.61731 17.325 7.61731L16.1586 7.61666L16.1587 8.63246C16.1587 8.96709 15.8563 9.23869 15.4837 9.23869C15.1111 9.23869 14.8087 8.96709 14.8087 8.63246L14.8086 7.61666L13.644 7.61731C13.2714 7.61731 12.969 7.34572 12.969 7.01108C12.969 6.67644 13.2714 6.40485 13.644 6.40485L14.8086 6.4042L14.8087 5.39034C14.8087 5.05571 15.1111 4.78412 15.4837 4.78412ZM7.0893 0C9.729 0 11.8755 1.92862 11.8755 4.29857C11.8755 6.66852 9.729 8.59713 7.0893 8.59713H7.0614C5.7843 8.59309 4.5873 8.14287 3.69 7.33133C2.7918 6.51898 2.2995 5.4407 2.30397 4.29614C2.30397 1.92862 4.4505 0 7.0893 0ZM7.0893 1.21246C5.1957 1.21246 3.65397 2.59708 3.65397 4.29857C3.6504 5.12223 4.0032 5.89416 4.6467 6.47695C5.2911 7.05893 6.1497 7.38144 7.0641 7.38468L7.0893 7.98363V7.38468C8.9838 7.38468 10.5255 6.00005 10.5255 4.29857C10.5255 2.59708 8.9838 1.21246 7.0893 1.21246Z" fill="#BFBFC4"/>
</svg>
