<svg width="18" height="18" viewBox="0 0 18 18" fill="none" xmlns="http://www.w3.org/2000/svg">
<path fill-rule="evenodd" clip-rule="evenodd" d="M12.9006 0C15.9507 0 18 2.1402 18 5.3244V12.6756C18 15.8598 15.9507 18 12.8988 18H5.0976C2.0484 18 0 15.8598 0 12.6756V5.3244C0 2.1402 2.0484 0 5.0976 0H12.9006ZM12.9006 1.35H5.0976C2.8215 1.35 1.35 2.9097 1.35 5.3244V12.6756C1.35 15.0903 2.8215 16.65 5.0976 16.65H12.8988C15.1776 16.65 16.65 15.0903 16.65 12.6756V5.3244C16.65 2.9097 15.1776 1.35 12.9006 1.35ZM6.15312 6.65856C7.21089 6.6593 8.1049 7.36201 8.39545 8.32403L13.5087 8.32455C13.8813 8.32455 14.1837 8.62695 14.1837 8.99955V10.6672C14.1837 11.0398 13.8813 11.3422 13.5087 11.3422C13.1361 11.3422 12.8337 11.0398 12.8337 10.6672V9.67455L11.6379 9.6741L11.6383 10.6672C11.6383 11.0398 11.3359 11.3422 10.9633 11.3422C10.5907 11.3422 10.2883 11.0398 10.2883 10.6672L10.2879 9.6741L8.39584 9.67497C8.10547 10.6381 7.21007 11.3422 6.15312 11.3422C4.86162 11.3422 3.81132 10.291 3.81132 9.00036C3.81132 7.70886 4.86162 6.65856 6.15312 6.65856ZM6.15492 8.00856C5.60592 8.00856 5.16132 8.45316 5.16132 9.00036C5.16132 9.54756 5.60592 9.99216 6.15312 9.99216C6.69942 9.99216 7.14492 9.54756 7.14492 9.00036C7.14492 8.45406 6.70032 8.00946 6.15492 8.00856Z" fill="#BFBFC4"/>
</svg>
